<svg width="30" height="30" viewBox="0 0 30 30" fill="none" xmlns="http://www.w3.org/2000/svg">
<circle cx="15" cy="15" r="14.25" fill="#F0E5D8" stroke="#77654B" stroke-width="1.5"/>
<path d="M21 16.4286H16V21.0714C16 21.5821 15.55 22 15 22C14.45 22 14 21.5821 14 21.0714V16.4286H9C8.45 16.4286 8 16.0107 8 15.5C8 14.9893 8.45 14.5714 9 14.5714H14V9.92857C14 9.41786 14.45 9 15 9C15.55 9 16 9.41786 16 9.92857V14.5714H21C21.55 14.5714 22 14.9893 22 15.5C22 16.0107 21.55 16.4286 21 16.4286Z" fill="#77654B"/>
</svg>
