<svg width="30" height="30" viewBox="0 0 30 30" fill="none" xmlns="http://www.w3.org/2000/svg">
    <circle cx="15" cy="15" r="14.25" stroke="#77654B" stroke-width="1.5"/>
    <path d="M22.2143 7.78534C21.7108 7.28246 21.0283 7 20.3168 7C19.6052 7 18.9227 7.28246 18.4193 7.78534L9.45527 16.7493C9.15042 17.0539 8.9362 17.4371 8.83652 17.8563L8.01527 21.3078C7.99303 21.4013 7.99512 21.499 8.02132 21.5914C8.04753 21.6839 8.09699 21.7681 8.16497 21.836C8.23296 21.9039 8.31721 21.9532 8.40969 21.9793C8.50218 22.0055 8.5998 22.0074 8.69327 21.9851L12.144 21.1631C12.5635 21.0635 12.947 20.8493 13.2518 20.5443L22.2143 11.5818C22.7171 11.0784 22.9996 10.3959 22.9996 9.68434C22.9996 8.97276 22.7171 8.29028 22.2143 7.78684M19.2143 8.58184C19.359 8.43705 19.5309 8.32221 19.7201 8.24385C19.9093 8.1655 20.112 8.12517 20.3168 8.12517C20.5215 8.12517 20.7243 8.1655 20.9134 8.24385C21.1026 8.32221 21.2745 8.43705 21.4193 8.58184C21.564 8.72662 21.6789 8.8985 21.7573 9.08767C21.8356 9.27684 21.8759 9.47958 21.8759 9.68434C21.8759 9.88909 21.8356 10.0918 21.7573 10.281C21.6789 10.4702 21.564 10.6421 21.4193 10.7868L20.7503 11.4536L18.5453 9.24934L19.2143 8.58184ZM17.7503 10.0458L19.9553 12.2493L12.4553 19.7493C12.2978 19.9068 12.0998 20.0171 11.883 20.0688L9.32102 20.6793L9.93077 18.1173C9.98252 17.8998 10.0935 17.7018 10.251 17.5443L17.7503 10.0458Z" fill="#77654B"/>
</svg>