<svg width="32" height="24" viewBox="0 0 32 24" fill="none" xmlns="http://www.w3.org/2000/svg">
<path d="M0 2.375C0 1.74511 0.250223 1.14102 0.695621 0.695621C1.14102 0.250222 1.74511 0 2.375 0H29.2917C29.9216 1.32739e-08 30.5256 0.250222 30.971 0.695621C31.4164 1.14102 31.6667 1.74511 31.6667 2.375C31.6667 3.00489 31.4164 3.60898 30.971 4.05438C30.5256 4.49978 29.9216 4.75 29.2917 4.75H2.375C1.74511 4.75 1.14102 4.49978 0.695621 4.05438C0.250223 3.60898 0 3.00489 0 2.375ZM6.33333 11.875C6.33333 11.2451 6.58356 10.641 7.02895 10.1956C7.47435 9.75022 8.07844 9.5 8.70833 9.5H22.9583C23.5882 9.5 24.1923 9.75022 24.6377 10.1956C25.0831 10.641 25.3333 11.2451 25.3333 11.875C25.3333 12.5049 25.0831 13.109 24.6377 13.5544C24.1923 13.9998 23.5882 14.25 22.9583 14.25H8.70833C8.07844 14.25 7.47435 13.9998 7.02895 13.5544C6.58356 13.109 6.33333 12.5049 6.33333 11.875ZM13.4583 19C12.8284 19 12.2244 19.2502 11.779 19.6956C11.3336 20.141 11.0833 20.7451 11.0833 21.375C11.0833 22.0049 11.3336 22.609 11.779 23.0544C12.2244 23.4998 12.8284 23.75 13.4583 23.75H18.2083C18.8382 23.75 19.4423 23.4998 19.8877 23.0544C20.3331 22.609 20.5833 22.0049 20.5833 21.375C20.5833 20.7451 20.3331 20.141 19.8877 19.6956C19.4423 19.2502 18.8382 19 18.2083 19H13.4583Z" fill="#F0E5D8"/>
</svg>
