<svg width="30" height="30" viewBox="0 0 30 30" fill="none" xmlns="http://www.w3.org/2000/svg">
<circle cx="15" cy="15" r="14.25" stroke="#77654B" stroke-width="1.5"/>
<path d="M10.616 23C10.168 23 9.78667 22.8503 9.472 22.551C9.15733 22.2517 9 21.8893 9 21.4639V9.68358H8V8.7324H12V8H18V8.7324H22V9.68358H21V21.4639C21 21.9014 20.846 22.267 20.538 22.5606C20.23 22.8542 19.8453 23.0006 19.384 23H10.616ZM20 9.68358H10V21.4639C10 21.6344 10.0577 21.7746 10.173 21.8843C10.2883 21.994 10.436 22.0488 10.616 22.0488H19.385C19.5383 22.0488 19.6793 21.988 19.808 21.8662C19.9367 21.7445 20.0007 21.61 20 21.4629V9.68358ZM12.808 20.1465H13.808V11.5859H12.808V20.1465ZM16.192 20.1465H17.192V11.5859H16.192V20.1465Z" fill="#77654B"/>
</svg>
