<svg width="14" height="12" viewBox="0 0 14 12" fill="none" xmlns="http://www.w3.org/2000/svg">
<path d="M8.4975 1.70122C7.91899 1.61522 7.33486 1.5726 6.75 1.57372C3.0225 1.57372 0 3.25297 0 5.32372C0 6.40372 0.822 7.37722 2.1375 8.06122L3.909 6.28972C3.72831 5.75919 3.69985 5.18865 3.82684 4.64278C3.95383 4.0969 4.2312 3.59751 4.6275 3.20121C5.0238 2.80491 5.52318 2.52755 6.06906 2.40056C6.61494 2.27357 7.18547 2.30203 7.716 2.48272L8.4975 1.70122ZM6.1725 8.26822C6.65529 8.36289 7.15395 8.33738 7.62455 8.19393C8.09516 8.05048 8.52326 7.79349 8.87115 7.44561C9.21903 7.09773 9.47602 6.66962 9.61947 6.19902C9.76292 5.72841 9.78843 5.22975 9.69375 4.74697L11.6797 2.76172C12.8085 3.43222 13.5 4.33372 13.5 5.32372C13.5 7.39447 10.4775 9.07372 6.75 9.07372C6.3015 9.07372 5.86275 9.04972 5.43825 9.00322L6.1725 8.26822ZM11.0947 0.228966C11.1639 0.157333 11.2467 0.100197 11.3382 0.0608901C11.4297 0.0215834 11.5281 0.00089368 11.6277 2.83178e-05C11.7273 -0.000837044 11.826 0.0181391 11.9182 0.0558497C12.0104 0.0935604 12.0941 0.14925 12.1645 0.21967C12.235 0.290089 12.2907 0.373828 12.3284 0.466001C12.3661 0.558173 12.3851 0.656933 12.3842 0.756517C12.3833 0.856102 12.3626 0.954516 12.3233 1.04602C12.284 1.13752 12.2269 1.22028 12.1553 1.28947L2.61 10.8362C2.54081 10.9078 2.45806 10.965 2.36655 11.0043C2.27505 11.0436 2.17664 11.0643 2.07705 11.0652C1.97747 11.066 1.87871 11.047 1.78653 11.0093C1.69436 10.9716 1.61062 10.9159 1.5402 10.8455C1.46978 10.7751 1.41409 10.6914 1.37638 10.5992C1.33867 10.507 1.3197 10.4082 1.32056 10.3087C1.32143 10.2091 1.34212 10.1107 1.38142 10.0192C1.42073 9.92766 1.47787 9.8449 1.5495 9.77572L11.0947 0.228966Z" fill="#77654B"/>
</svg>
