<svg width="9" height="9" viewBox="0 0 9 9" fill="none" xmlns="http://www.w3.org/2000/svg">
<path d="M6.36364 3.53571C6.36364 2.76848 6.06193 2.03267 5.5249 1.49016C4.98786 0.947639 4.25948 0.642857 3.5 0.642857C2.74052 0.642857 2.01214 0.947639 1.4751 1.49016C0.938067 2.03267 0.636364 2.76848 0.636364 3.53571C0.636364 4.72243 1.57627 6.26914 3.5 8.12186C5.42373 6.26914 6.36364 4.72243 6.36364 3.53571ZM3.5 9C1.16645 6.85736 0 5.0355 0 3.53571C0 2.59798 0.368749 1.69866 1.02513 1.03559C1.6815 0.372512 2.57174 0 3.5 0C4.42826 0 5.3185 0.372512 5.97487 1.03559C6.63125 1.69866 7 2.59798 7 3.53571C7 5.0355 5.83355 6.85736 3.5 9Z" fill="#77654B"/>
<path d="M3.5 4.4C3.73869 4.4 3.96761 4.30518 4.1364 4.1364C4.30518 3.96761 4.4 3.73869 4.4 3.5C4.4 3.26131 4.30518 3.03239 4.1364 2.8636C3.96761 2.69482 3.73869 2.6 3.5 2.6C3.26131 2.6 3.03239 2.69482 2.8636 2.8636C2.69482 3.03239 2.6 3.26131 2.6 3.5C2.6 3.73869 2.69482 3.96761 2.8636 4.1364C3.03239 4.30518 3.26131 4.4 3.5 4.4ZM3.5 5C3.10218 5 2.72064 4.84196 2.43934 4.56066C2.15804 4.27936 2 3.89782 2 3.5C2 3.10218 2.15804 2.72064 2.43934 2.43934C2.72064 2.15804 3.10218 2 3.5 2C3.89782 2 4.27936 2.15804 4.56066 2.43934C4.84196 2.72064 5 3.10218 5 3.5C5 3.89782 4.84196 4.27936 4.56066 4.56066C4.27936 4.84196 3.89782 5 3.5 5Z" fill="#77654B"/>
</svg>
