<svg width="6" height="6" viewBox="0 0 6 6" fill="none" xmlns="http://www.w3.org/2000/svg">
<path d="M5.29536 0L0 5.2954L0.704637 6L6 0.704948L5.29536 0ZM1.23594 0.529505C1.14322 0.529413 1.05139 0.547582 0.965691 0.582977C0.879994 0.618371 0.802108 0.670297 0.736479 0.735791C0.670851 0.801284 0.618766 0.879061 0.583198 0.964683C0.54763 1.0503 0.529276 1.14209 0.529183 1.23481C0.529091 1.32752 0.547261 1.41934 0.582658 1.50504C0.618054 1.59073 0.669984 1.66861 0.735481 1.73424C0.800978 1.79986 0.87876 1.85194 0.964386 1.88751C1.05001 1.92307 1.14181 1.94143 1.23453 1.94152C1.42178 1.94171 1.60144 1.8675 1.73398 1.73523C1.86653 1.60296 1.94109 1.42346 1.94128 1.23622C1.94147 1.04897 1.86726 0.869323 1.73498 0.736789C1.60271 0.604255 1.42319 0.529692 1.23594 0.529505ZM4.76618 4.05954C4.57893 4.05935 4.39926 4.13356 4.26672 4.26583C4.13418 4.3981 4.05961 4.5776 4.05943 4.76484C4.05924 4.95209 4.13345 5.13174 4.26572 5.26427C4.398 5.3968 4.57751 5.47137 4.76477 5.47155C4.85749 5.47165 4.94932 5.45348 5.03502 5.41808C5.12071 5.38269 5.1986 5.33076 5.26423 5.26527C5.32986 5.19978 5.38194 5.122 5.41751 5.03638C5.45308 4.95075 5.47143 4.85897 5.47152 4.76625C5.47162 4.67354 5.45344 4.58171 5.41805 4.49602C5.38265 4.41033 5.33072 4.33245 5.26523 4.26682C5.19973 4.2012 5.12195 4.14912 5.03632 4.11355C4.95069 4.07799 4.8589 4.05963 4.76618 4.05954Z" fill="#77654B"/>
</svg>
