<svg width="27" height="27" viewBox="0 0 27 27" fill="none" xmlns="http://www.w3.org/2000/svg">
<path d="M11.4496 12.7226C10.217 12.7226 9.01205 12.3496 7.98716 11.6506C6.96226 10.9516 6.16346 9.95808 5.69175 8.7957C5.22004 7.63332 5.09662 6.35427 5.3371 5.12029C5.57757 3.88632 6.17114 2.75284 7.04274 1.86319C7.91434 0.973544 9.02483 0.367687 10.2338 0.122234C11.4427 -0.123219 12.6958 0.00275625 13.8346 0.48423C14.9734 0.965703 15.9468 1.78105 16.6316 2.82716C17.3164 3.87328 17.6819 5.10317 17.6819 6.36132C17.6819 8.04845 17.0253 9.66648 15.8565 10.8595C14.6877 12.0524 13.1025 12.7226 11.4496 12.7226ZM11.4496 1.89022C10.5692 1.89022 9.7085 2.15671 8.97644 2.65599C8.24437 3.15527 7.67379 3.86492 7.33686 4.69519C6.99992 5.52546 6.91177 6.43907 7.08353 7.32048C7.2553 8.20189 7.67928 9.01152 8.30185 9.64698C8.92442 10.2824 9.71763 10.7152 10.5812 10.8905C11.4447 11.0658 12.3398 10.9759 13.1532 10.632C13.9666 10.288 14.6619 9.70565 15.151 8.95843C15.6402 8.2112 15.9013 7.33271 15.9013 6.43403C15.9013 5.83733 15.7861 5.24647 15.5624 4.69519C15.3387 4.14391 15.0108 3.643 14.5974 3.22107C14.184 2.79914 13.6933 2.46445 13.1532 2.2361C12.6131 2.00775 12.0342 1.89022 11.4496 1.89022ZM16.4087 13.8222C11.5907 12.7156 6.55019 13.2486 2.05668 15.3399C1.4387 15.6412 0.9173 16.1155 0.553189 16.7076C0.189079 17.2996 -0.00275379 17.9851 2.98698e-05 18.6841V24.0912C2.98674e-05 24.2106 0.023059 24.3288 0.0678021 24.439C0.112545 24.5493 0.178126 24.6494 0.2608 24.7338C0.343475 24.8182 0.441624 24.8852 0.549643 24.9308C0.657663 24.9765 0.773437 25 0.890357 25C1.00728 25 1.12305 24.9765 1.23107 24.9308C1.33909 24.8852 1.43724 24.8182 1.51991 24.7338C1.60259 24.6494 1.66817 24.5493 1.71291 24.439C1.75765 24.3288 1.78068 24.2106 1.78068 24.0912V18.6841C1.77293 18.3303 1.86653 17.9819 2.04999 17.6817C2.23345 17.3814 2.49879 17.1424 2.81346 16.9938C5.52029 15.7181 8.46821 15.0636 11.4496 15.0763C13.1202 15.0742 14.785 15.2755 16.4087 15.6761V13.8222ZM16.5334 22.4646H22V23.7368H16.5334V22.4646Z" fill="#77654B"/>
<path d="M26.1194 16.9973H21.5669V18.6146H25.2389V25.3827H12.7611V18.6146H18.3088V18.9542C18.3088 19.1686 18.4015 19.3743 18.5667 19.526C18.7318 19.6776 18.9558 19.7628 19.1893 19.7628C19.4229 19.7628 19.6468 19.6776 19.812 19.526C19.9771 19.3743 20.0699 19.1686 20.0699 18.9542V15.8086C20.0699 15.5942 19.9771 15.3885 19.812 15.2368C19.6468 15.0852 19.4229 15 19.1893 15C18.9558 15 18.7318 15.0852 18.5667 15.2368C18.4015 15.3885 18.3088 15.5942 18.3088 15.8086V16.9973H11.8806C11.647 16.9973 11.4231 17.0825 11.2579 17.2341C11.0928 17.3858 11 17.5915 11 17.8059V26.1914C11 26.4058 11.0928 26.6115 11.2579 26.7632C11.4231 26.9148 11.647 27 11.8806 27H26.1194C26.353 27 26.5769 26.9148 26.7421 26.7632C26.9072 26.6115 27 26.4058 27 26.1914V17.8059C27 17.5915 26.9072 17.3858 26.7421 17.2341C26.5769 17.0825 26.353 16.9973 26.1194 16.9973Z" fill="#77654B"/>
</svg>
